<svg width="38" height="24" viewBox="0 0 38 24" fill="none" xmlns="http://www.w3.org/2000/svg">
<path opacity="0.07" d="M35 0H3C1.3 0 0 1.3 0 3V21C0 22.7 1.4 24 3 24H35C36.7 24 38 22.7 38 21V3C38 1.3 36.6 0 35 0Z" fill="black"/>
<path d="M35 1C36.1 1 37 1.9 37 3V21C37 22.1 36.1 23 35 23H3C1.9 23 1 22.1 1 21V3C1 1.9 1.9 1 3 1H35Z" fill="white"/>
<path d="M18.093 11.9757V15.1757H17.075V7.27574H19.766C20.0884 7.27028 20.4088 7.32861 20.7086 7.44737C21.0084 7.56613 21.2818 7.74297 21.513 7.96774C21.732 8.17214 21.9087 8.41769 22.0327 8.69038C22.1568 8.96306 22.2259 9.25753 22.2362 9.55694C22.2464 9.85636 22.1975 10.1549 22.0923 10.4354C21.9871 10.7159 21.8276 10.9729 21.623 11.1917L21.513 11.3077C21.043 11.7547 20.415 11.9977 19.766 11.9817L18.093 11.9757ZM18.093 8.24374V11.0317H19.791C20.168 11.0437 20.532 10.8967 20.796 10.6277C20.9848 10.4309 21.1117 10.1829 21.1606 9.91458C21.2096 9.64624 21.1787 9.36943 21.0716 9.11857C20.9645 8.86771 20.786 8.65387 20.5583 8.50366C20.3306 8.35345 20.0638 8.2735 19.791 8.27374L18.093 8.24374ZM24.577 9.59174C25.227 9.56174 25.863 9.77974 26.355 10.2047C26.8 10.6347 27.037 11.2347 27.005 11.8537V15.1877H26.036V14.4217H25.987C25.8132 14.709 25.5675 14.946 25.2741 15.1093C24.9807 15.2726 24.6498 15.3565 24.314 15.3527C23.7659 15.3705 23.2314 15.1801 22.818 14.8197C22.6221 14.66 22.4652 14.4577 22.359 14.2284C22.2528 13.999 22.2001 13.7485 22.205 13.4957C22.1935 13.2403 22.2431 12.9859 22.3497 12.7535C22.4563 12.5211 22.6169 12.3176 22.818 12.1597C23.3114 11.8049 23.9086 11.6238 24.516 11.6447C25.033 11.6247 25.546 11.7377 26.006 11.9757V11.7677C26.0094 11.5958 25.9736 11.4253 25.9014 11.2692C25.8291 11.1131 25.7223 10.9755 25.589 10.8667C25.3213 10.6234 24.9707 10.4917 24.609 10.4987C24.3463 10.4963 24.0874 10.5608 23.8566 10.6863C23.6258 10.8117 23.4308 10.994 23.29 11.2157L22.395 10.6517C22.638 10.3035 22.9661 10.0233 23.3481 9.83779C23.73 9.65225 24.1531 9.56754 24.577 9.59174ZM23.29 13.5197C23.2876 13.6493 23.3171 13.7774 23.3758 13.8928C23.4346 14.0083 23.5209 14.1075 23.627 14.1817C23.85 14.3577 24.127 14.4507 24.412 14.4447C24.841 14.4437 25.252 14.2747 25.558 13.9727C25.863 13.6867 26.036 13.2877 26.036 12.8697C25.651 12.5961 25.1833 12.4639 24.712 12.4957C24.3461 12.4813 23.9852 12.5844 23.682 12.7897C23.5619 12.8701 23.4634 12.9786 23.3951 13.1059C23.3267 13.2332 23.2907 13.3753 23.29 13.5197ZM32.576 9.76974L29.186 17.5597H28.138L29.419 14.8317L27.195 9.76974H28.298L29.91 13.6547L31.479 9.76974H32.576Z" fill="#5F6368"/>
<path d="M13.986 11.2843C13.986 10.9763 13.962 10.6683 13.913 10.3643H9.62299V12.1113H12.074C12.0241 12.3889 11.9186 12.6536 11.764 12.8895C11.6094 13.1255 11.4087 13.3277 11.174 13.4843V14.6183H12.638C13.0831 14.1875 13.4331 13.6683 13.6652 13.0941C13.8974 12.5198 14.0067 11.9033 13.986 11.2843Z" fill="#4285F4"/>
<path d="M9.629 15.7209C10.7353 15.7513 11.8116 15.359 12.639 14.6239L11.173 13.4839C10.8207 13.7098 10.4216 13.8523 10.006 13.9008C9.59039 13.9492 9.1692 13.9022 8.77448 13.7633C8.37975 13.6245 8.02188 13.3975 7.72808 13.0995C7.43429 12.8016 7.2123 12.4406 7.079 12.0439H5.577V13.2139C5.95284 13.967 6.53104 14.6004 7.24675 15.0432C7.96246 15.486 8.78738 15.7207 9.629 15.7209Z" fill="#34A853"/>
<path d="M7.07899 12.0495C6.88879 11.4868 6.88879 10.8772 7.07899 10.3145V9.14453H5.57699C5.25678 9.77599 5.0899 10.474 5.0899 11.182C5.0899 11.89 5.25678 12.5881 5.57699 13.2195L7.07899 12.0495Z" fill="#FBBC04"/>
<path d="M9.629 8.44019C10.276 8.42837 10.9015 8.6728 11.369 9.12019L12.669 7.82719C11.8401 7.0492 10.7406 6.62485 9.604 6.64419C8.76736 6.64838 7.94824 6.88419 7.23743 7.32547C6.52662 7.76674 5.9519 8.39625 5.577 9.14419L7.079 10.3152C7.25462 9.77527 7.59508 9.304 8.0525 8.96766C8.50992 8.63132 9.06127 8.44685 9.629 8.44019Z" fill="#EA4335"/>
</svg>
