<svg width="38" height="24" viewBox="0 0 38 24" fill="none" xmlns="http://www.w3.org/2000/svg">
<path d="M34.3872 0H3.61287C3.48468 0 3.35626 0 3.2283 0.00067947C3.12026 0.00158543 3.01245 0.00271788 2.90441 0.00566225C2.66909 0.012004 2.43173 0.0260463 2.19935 0.0677205C1.9663 0.107648 1.74051 0.182074 1.52939 0.288548C1.10499 0.504411 0.760026 0.849374 0.544163 1.27378C0.4375 1.48497 0.363065 1.71095 0.323336 1.94419C0.281209 2.17679 0.267393 2.41393 0.261051 2.64903C0.258291 2.75697 0.25663 2.86493 0.256068 2.97291C0.255615 3.10065 0.255615 3.22884 0.255615 3.35726V20.6425C0.255615 20.7709 0.255615 20.8989 0.256068 21.0273C0.256748 21.1351 0.258107 21.2432 0.261051 21.3512C0.267393 21.5858 0.281435 21.8232 0.323336 22.0556C0.362983 22.2888 0.437342 22.5148 0.543937 22.726C0.651108 22.9369 0.790999 23.1296 0.958413 23.2967C1.12554 23.4642 1.31819 23.6041 1.52917 23.7112C1.74365 23.8206 1.96335 23.8902 2.19958 23.9325C2.43173 23.974 2.66909 23.988 2.90441 23.9943C3.01245 23.9968 3.12026 23.9982 3.2283 23.9989C3.35626 23.9998 3.48468 23.9998 3.61287 23.9998H34.3872C34.5152 23.9998 34.6436 23.9998 34.7715 23.9989C34.8794 23.9984 34.9872 23.9968 35.0956 23.9943C35.3305 23.988 35.5679 23.974 35.8007 23.9325C36.0338 23.8925 36.2596 23.818 36.4707 23.7112C36.8949 23.4951 37.2397 23.1502 37.4559 22.726C37.5653 22.5115 37.6346 22.2918 37.6765 22.0556C37.7186 21.8232 37.7322 21.5858 37.7386 21.3512C37.7415 21.2432 37.7431 21.1351 37.7435 21.0273C37.7444 20.8989 37.7444 20.7709 37.7444 20.6425V3.35749C37.7444 3.22907 37.7444 3.10087 37.7435 2.97268C37.7431 2.86478 37.7414 2.75689 37.7386 2.64903C37.7322 2.41393 37.7186 2.17679 37.6765 1.94419C37.6371 1.71091 37.5627 1.4849 37.4559 1.27378C37.2399 0.849448 36.895 0.504513 36.4707 0.288548C36.2595 0.182184 36.0337 0.107836 35.8007 0.067947C35.5679 0.0260463 35.3305 0.0122305 35.0956 0.00588874C34.9876 0.00314533 34.8796 0.00148432 34.7715 0.000905959C34.6436 0 34.5152 0 34.3872 0Z" fill="black"/>
<path d="M34.3871 0.799805L34.7658 0.800484C34.8682 0.801164 34.9708 0.802296 35.0739 0.805014C35.2535 0.809997 35.4632 0.819736 35.6589 0.854842C35.8288 0.885418 35.9714 0.931848 36.1082 1.00161C36.382 1.1408 36.6044 1.36345 36.7433 1.63736C36.8126 1.77326 36.8588 1.91504 36.8894 2.08649C36.9243 2.27992 36.934 2.49033 36.9388 2.67084C36.9417 2.77276 36.9431 2.87468 36.9433 2.97886C36.9444 3.10502 36.9444 3.23095 36.9444 3.35733V20.6426C36.9444 20.769 36.9444 20.8949 36.9435 21.0235C36.9431 21.1255 36.9417 21.2274 36.939 21.3293C36.934 21.5096 36.9243 21.72 36.889 21.9157C36.8633 22.0713 36.814 22.2222 36.7429 22.363C36.6037 22.637 36.3809 22.8597 36.1069 22.9988C35.971 23.0681 35.8288 23.1145 35.6605 23.1448C35.4609 23.1804 35.2421 23.1901 35.0775 23.1947C34.974 23.1969 34.8709 23.1985 34.7652 23.199C34.6395 23.1999 34.5131 23.1999 34.3871 23.1999H3.60786C3.48329 23.1999 3.35872 23.1999 3.23188 23.199C3.12995 23.1985 3.02803 23.1972 2.92612 23.1949C2.75761 23.1904 2.53882 23.1804 2.34087 23.1451C2.18436 23.119 2.03271 23.0694 1.89106 22.9979C1.7552 22.9288 1.63119 22.8386 1.5237 22.7306C1.41587 22.623 1.32581 22.4989 1.25689 22.363C1.18572 22.2214 1.13639 22.0698 1.11058 21.9134C1.07525 21.718 1.06528 21.5085 1.06075 21.3295C1.05819 21.2272 1.05668 21.1249 1.05622 21.0226L1.05554 20.7221V3.27806L1.05599 2.97796C1.05646 2.8755 1.05797 2.77304 1.06052 2.67061C1.06551 2.49123 1.07525 2.28173 1.11081 2.08468C1.13666 1.9286 1.18599 1.77733 1.25712 1.63601C1.32597 1.50056 1.41566 1.3769 1.52438 1.26841C1.63213 1.16049 1.75627 1.07029 1.8922 1.00115C2.03349 0.930167 2.18467 0.880844 2.34065 0.854842C2.53656 0.819736 2.74652 0.809997 2.92635 0.805014C3.02872 0.802296 3.13132 0.801164 3.23302 0.800484L3.61284 0.799805H34.3871Z" fill="white"/>
<path d="M10.1097 8.10171C10.4277 7.70422 10.6433 7.17039 10.5865 6.625C10.1213 6.6481 9.55369 6.93189 9.22483 7.32984C8.92971 7.67048 8.66857 8.22651 8.73652 8.74902C9.2588 8.79432 9.78064 8.48811 10.1097 8.10171Z" fill="black"/>
<path d="M10.5806 8.8507C9.82187 8.8054 9.17727 9.28103 8.81512 9.28103C8.45273 9.28103 7.89806 8.87335 7.29809 8.88445C6.51738 8.89577 5.79306 9.33742 5.39671 10.0395C4.58179 11.4438 5.18154 13.5275 5.97425 14.6713C6.35906 15.2375 6.82291 15.8603 7.43398 15.8379C8.01153 15.8153 8.23779 15.4642 8.93946 15.4642C9.6409 15.4642 9.84474 15.8379 10.456 15.8266C11.0898 15.8153 11.4861 15.2604 11.8709 14.6941C12.3126 14.0486 12.4931 13.4258 12.5044 13.3918C12.4931 13.3805 11.2823 12.916 11.2709 11.5231C11.2596 10.3566 12.2218 9.80173 12.267 9.76753C11.7237 8.96394 10.8748 8.87335 10.5804 8.8507" fill="black"/>
<path d="M18.1422 7.27246C19.7906 7.27246 20.9386 8.40876 20.9386 10.063C20.9386 11.7232 19.767 12.8654 18.101 12.8654H16.2759V15.7681H14.9573V7.27246H18.1422ZM16.2759 11.7585H17.7889C18.9372 11.7585 19.5904 11.1405 19.5904 10.0689C19.5904 8.99763 18.9369 8.38521 17.7947 8.38521H16.2759V11.7585Z" fill="black"/>
<path d="M21.2657 14.0075C21.2657 12.9183 22.0958 12.2944 23.6264 12.2002L25.2689 12.1V11.6289C25.2689 10.9404 24.8157 10.5635 24.0092 10.5635C23.3437 10.5635 22.8609 10.9049 22.7612 11.4287H21.5717C21.6072 10.328 22.6432 9.52734 24.0445 9.52734C25.5516 9.52734 26.5347 10.3162 26.5347 11.5408V15.7678H25.3162V14.7493H25.2868C24.9394 15.4145 24.1738 15.8324 23.3437 15.8324C22.1193 15.8324 21.2657 15.1026 21.2657 14.0075ZM25.2689 13.4601V12.9831L23.8031 13.0773C22.9786 13.1303 22.5492 13.4363 22.5492 13.972C22.5492 14.4902 22.9965 14.8258 23.6971 14.8258C24.5917 14.8258 25.2689 14.2546 25.2689 13.4601Z" fill="black"/>
<path d="M27.6552 18.0398V17.0215C27.7377 17.0331 27.9376 17.0448 28.0436 17.0448C28.6264 17.0448 28.9562 16.798 29.1564 16.1618L29.2742 15.7851L27.0428 9.60352H28.4203L29.9747 14.6194H30.0041L31.5583 9.60352H32.9007L30.5869 16.097C30.0569 17.5866 29.4506 18.0754 28.1673 18.0754C28.0672 18.0754 27.7433 18.0636 27.6552 18.0398Z" fill="black"/>
</svg>
