<svg width="38" height="24" viewBox="0 0 38 24" fill="none" xmlns="http://www.w3.org/2000/svg">
<path d="M17.7 0V24H10.5C9.2 24 8.4 23 8.7 21.7L13.1 2.3C13.4 0.999999 15 0 16.3 0H17.7ZM30.3 0C29 0 27.4 0.999999 27.1 2.3L22.6 21.7C22.3 23 23.1 24 24.4 24H19.5V0H30.3Z" fill="#005B9A"/>
<path d="M16.3 0C15 0 13.4 1.1 13.1 2.3L8.70001 21.7C8.40001 23 9.20001 24 10.5 24H1.60001C0.800006 24 0.100006 23.4 0.100006 22.6V1.6C0.100006 0.8 0.800006 0 1.60001 0H16.3Z" fill="#E9292D"/>
<path d="M30.3 0C29 0 27.4 1.1 27.1 2.3L22.7 21.7C22.4 23 23.2 24 24.5 24H10H10.5C9.2 24 8.4 23 8.7 21.7L13.1 2.3C13.4 0.999999 15 0 16.3 0H30.3Z" fill="#0E73B9"/>
<path d="M38 1.6V22.6C38 23.4 37.4 24 36.5 24H24.4C23.1 24 22.3 22.9 22.6 21.7L27.1 2.3C27.4 0.999999 29 0 30.3 0H36.5C37.4 0 38 0.7 38 1.6Z" fill="#059DA4"/>
<path d="M14.878 13.6454H15.018C15.158 13.6454 15.298 13.5754 15.298 13.5054L15.718 12.8754H16.908L16.698 13.2254H18.098L17.888 13.8554H16.208C15.998 14.1354 15.788 14.2754 15.508 14.2754H14.668L14.878 13.6454ZM14.668 14.5554H17.678L17.468 15.2554H16.278L16.068 15.9554H17.258L17.048 16.6554H15.858L15.578 17.7054C15.508 17.8454 15.578 17.9854 15.858 17.9154H16.838L16.628 18.6154H14.738C14.388 18.6154 14.248 18.4054 14.388 17.9854L14.738 16.6554H13.968L14.178 15.9554H14.948L15.158 15.2554H14.458L14.668 14.5554ZM19.498 12.8054V13.2254C19.498 13.2254 20.058 12.8054 20.618 12.8054H22.578L21.808 15.4654C21.738 15.7454 21.458 15.9554 21.038 15.9554H18.798L18.308 17.8454C18.308 17.9154 18.308 17.9854 18.448 17.9854H18.868L18.728 18.5454H17.608C17.188 18.5454 17.048 18.4054 17.118 18.1954L18.588 12.8054H19.498ZM21.178 13.5754H19.428L19.218 14.2754C19.218 14.2754 19.498 14.0654 19.988 14.0654H21.038L21.178 13.5754ZM20.548 15.2554C20.688 15.2554 20.758 15.2554 20.758 15.1154L20.898 14.7654H19.148L19.008 15.3254L20.548 15.2554ZM19.358 16.0954H20.338V16.5154H20.618C20.758 16.5154 20.828 16.4454 20.828 16.3754L20.898 16.0954H21.738L21.598 16.5854C21.528 16.9354 21.248 17.0754 20.828 17.1454H20.268V17.9154C20.268 18.0554 20.338 18.1254 20.618 18.1254H21.108L20.968 18.6854H19.778C19.428 18.6854 19.288 18.5454 19.288 18.1954L19.358 16.0954ZM23.558 13.6454L23.768 12.8054H24.958L24.888 13.0854C24.888 13.0854 25.448 12.8054 25.938 12.8054H27.408L27.198 13.6454H26.988L25.868 17.4954H26.078L25.868 18.2654H25.658L25.588 18.6154H24.398L24.468 18.2654H22.298L22.508 17.4954H22.718L23.838 13.6454H23.558ZM24.818 13.6454L24.538 14.6954C24.538 14.6954 25.028 14.4854 25.448 14.4154C25.518 14.0654 25.658 13.6454 25.658 13.6454H24.818ZM24.328 15.1854L24.048 16.3054C24.048 16.3054 24.608 16.0254 25.028 16.0254C25.168 15.6054 25.238 15.2554 25.238 15.2554L24.328 15.1854ZM24.538 17.4954L24.748 16.7254H23.908L23.698 17.4954H24.538ZM27.408 12.8054H28.528L28.598 13.2254C28.598 13.2954 28.668 13.3654 28.808 13.3654H29.018L28.808 14.0654H28.038C27.758 14.0654 27.548 13.9954 27.548 13.7154L27.408 12.8054ZM27.058 14.2754H30.628L30.418 15.0454H29.228L29.018 15.7454H30.138L29.928 16.5154H28.668L28.388 16.9354H29.018L29.158 17.7754C29.158 17.8454 29.228 17.9154 29.368 17.9154H29.578L29.368 18.6154H28.668C28.318 18.6154 28.108 18.5454 28.108 18.2654L27.968 17.4954L27.408 18.3354C27.268 18.5454 27.058 18.6854 26.778 18.6854H25.728L25.938 17.9854H26.288C26.428 17.9854 26.498 17.9154 26.638 17.7754L27.478 16.5154H26.428L26.638 15.7454H27.828L28.038 15.0454H26.848L27.058 14.2754ZM7.31799 9.23543C7.17799 9.93543 6.89799 10.4254 6.40799 10.7754C5.91799 11.1254 5.28799 11.3354 4.51799 11.3354C3.81799 11.3354 3.25799 11.1254 2.97799 10.7754C2.76799 10.4954 2.62799 10.2154 2.62799 9.79543C2.62799 9.65543 2.62799 9.44543 2.69799 9.23543L3.53799 5.31543H4.72799L3.95799 9.23543V9.51543C3.95799 9.72543 4.02799 9.86543 4.09799 10.0054C4.23799 10.2154 4.44799 10.2854 4.79799 10.2854C5.14799 10.2854 5.49799 10.2154 5.70799 10.0054C5.91799 9.79543 6.12799 9.58543 6.19799 9.23543L6.96799 5.31543H8.15799L7.31799 9.23543ZM8.43799 7.69543H9.27799L9.20799 8.18543L9.34799 8.04543C9.62799 7.76543 9.97799 7.62543 10.398 7.62543C10.748 7.62543 11.028 7.76543 11.168 7.97543C11.308 8.18543 11.378 8.46543 11.308 8.88543L10.818 11.2654H9.90799L10.328 9.09543C10.398 8.81543 10.398 8.60543 10.328 8.53543C10.258 8.39543 10.118 8.39543 9.97799 8.39543C9.76799 8.39543 9.55799 8.46543 9.41799 8.60543C9.27799 8.74543 9.13799 8.95543 9.13799 9.23543L8.71799 11.2654H7.80799L8.43799 7.69543ZM18.238 7.69543H19.078L19.008 8.18543L19.148 8.04543C19.428 7.76543 19.778 7.62543 20.198 7.62543C20.548 7.62543 20.828 7.76543 20.968 7.97543C21.108 8.18543 21.178 8.46543 21.108 8.88543L20.618 11.2654H19.708L20.128 9.02543C20.198 8.81543 20.128 8.60543 20.058 8.53543C19.988 8.39543 19.848 8.39543 19.708 8.39543C19.498 8.39543 19.288 8.46543 19.148 8.60543C19.008 8.74543 18.868 8.95543 18.868 9.23543L18.448 11.2654H17.538L18.238 7.69543ZM12.428 7.69543H13.408L12.638 11.1954H11.658L12.428 7.69543ZM12.778 6.36543H13.758L13.548 7.20543H12.568L12.778 6.36543ZM14.178 10.9154C13.968 10.7054 13.828 10.3554 13.828 9.93543V9.72543C13.828 9.65543 13.828 9.51543 13.898 9.44543C14.038 8.88543 14.248 8.39543 14.598 8.11543C14.948 7.76543 15.438 7.62543 15.928 7.62543C16.348 7.62543 16.698 7.76543 16.978 7.97543C17.188 8.18543 17.328 8.53543 17.328 8.95543V9.16543C17.328 9.23543 17.328 9.37543 17.258 9.44543C17.118 10.0054 16.908 10.4254 16.558 10.7754C16.208 11.1254 15.718 11.2654 15.228 11.2654C14.878 11.2654 14.528 11.1254 14.178 10.9154ZM16.068 10.2154C16.208 10.0054 16.348 9.72543 16.418 9.37543V9.02543C16.418 8.81543 16.348 8.67543 16.278 8.53543C16.2164 8.467 16.1407 8.41278 16.0561 8.37652C15.9715 8.34026 15.88 8.32283 15.788 8.32543C15.508 8.32543 15.298 8.39543 15.158 8.60543C15.018 8.81543 14.878 9.09543 14.808 9.44543V9.72543C14.808 9.93543 14.878 10.0754 14.948 10.2154C15.088 10.3554 15.228 10.4254 15.438 10.4254C15.718 10.4954 15.858 10.4254 16.068 10.2154ZM22.578 5.52543H25.098C25.588 5.52543 25.938 5.66543 26.218 5.87543C26.498 6.08543 26.568 6.43543 26.568 6.78543V7.06543C26.568 7.13543 26.568 7.27543 26.498 7.34543C26.428 7.83543 26.148 8.32543 25.798 8.60543C25.378 8.95543 24.958 9.09543 24.398 9.09543H22.998L22.578 11.1254H21.388L22.578 5.52543ZM23.138 8.11543H24.258C24.538 8.11543 24.748 8.04543 24.958 7.90543C25.098 7.76543 25.238 7.55543 25.308 7.27543V6.99543C25.308 6.78543 25.238 6.64543 25.098 6.57543C24.958 6.50543 24.748 6.43543 24.398 6.43543H23.488L23.138 8.11543ZM31.818 11.8254C31.468 12.5954 31.118 13.0854 30.908 13.2954C30.698 13.5054 30.278 13.9954 29.298 13.9954L29.368 13.3654C30.208 13.0854 30.628 11.9654 30.908 11.4054L30.628 7.62543H31.818L31.888 10.0054L32.798 7.69543H33.848L31.818 11.8254ZM28.878 7.97543L28.458 8.25543C28.038 7.90543 27.618 7.69543 26.918 8.04543C25.938 8.53543 25.028 12.1754 27.828 10.9854L27.968 11.1954H29.088L29.788 7.90543L28.878 7.97543ZM28.318 9.79543C28.108 10.3554 27.758 10.6354 27.408 10.5654C27.128 10.4254 27.058 9.93543 27.198 9.37543C27.408 8.81543 27.758 8.53543 28.108 8.60543C28.388 8.74543 28.458 9.23543 28.318 9.79543Z" fill="white"/>
</svg>
