<svg width="38" height="24" viewBox="0 0 38 24" fill="none" xmlns="http://www.w3.org/2000/svg">
<path opacity="0.07" d="M35 0H3C1.3 0 0 1.3 0 3V21C0 22.7 1.4 24 3 24H35C36.7 24 38 22.7 38 21V3C38 1.3 36.6 0 35 0Z" fill="black"/>
<path d="M35 1C36.1 1 37 1.9 37 3V21C37 22.1 36.1 23 35 23H3C1.9 23 1 22.1 1 21V3C1 1.9 1.9 1 3 1H35Z" fill="#006FCF"/>
<path d="M22.012 19.9356V11.5146L37 11.5276V13.8536L35.268 15.7056L37 17.5726V19.9476H34.234L32.764 18.3256L31.304 19.9536L22.012 19.9336V19.9356Z" fill="white"/>
<path d="M23.013 19.0124V12.4424H28.585V13.9554H24.817V14.9834H28.495V16.4714H24.817V17.4814H28.585V19.0124H23.013Z" fill="#006FCF"/>
<path d="M28.557 19.0124L31.64 15.7234L28.557 12.4414H30.943L32.827 14.5244L34.717 12.4424H37V12.4934L33.983 15.7234L37 18.9204V19.0134H34.693L32.776 16.9104L30.878 19.0144H28.557V19.0124Z" fill="#006FCF"/>
<path d="M22.71 4.04004H26.324L27.593 6.92104V4.04004H32.053L32.823 6.19904L33.594 4.04004H37V12.461H19L22.71 4.04004Z" fill="white"/>
<path d="M23.395 4.95508L20.479 11.5211H22.479L23.029 10.2061H26.009L26.559 11.5211H28.609L25.705 4.95508H23.395ZM23.645 8.73208L24.52 6.64208L25.393 8.73208H23.645Z" fill="#006FCF"/>
<path d="M28.581 11.5201V4.95312L31.392 4.96312L32.84 9.00012L34.296 4.95412H37V11.5191L35.26 11.5351V7.02513L33.616 11.5191H32.026L30.35 7.01013V11.5201H28.582H28.581Z" fill="#006FCF"/>
</svg>
