<svg width="38" height="24" viewBox="0 0 38 24" fill="none" xmlns="http://www.w3.org/2000/svg">
<path opacity="0.07" d="M35 0H3C1.3 0 0 1.3 0 3V21C0 22.7 1.4 24 3 24H35C36.7 24 38 22.7 38 21V3C38 1.3 36.6 0 35 0Z" fill="black"/>
<path d="M35 1C36.1 1 37 1.9 37 3V21C37 22.1 36.1 23 35 23H3C1.9 23 1 22.1 1 21V3C1 1.9 1.9 1 3 1H35Z" fill="white"/>
<path d="M4.703 3.07715H33.297C33.436 3.07715 33.573 3.10015 33.702 3.14515C33.83 3.19015 33.946 3.25515 34.045 3.33915C34.1406 3.41894 34.2185 3.51768 34.274 3.62915C34.327 3.73615 34.354 3.85215 34.354 3.96915V20.0301C34.3517 20.1516 34.3228 20.2711 34.2692 20.3801C34.2156 20.4892 34.1387 20.5851 34.044 20.6611C33.8333 20.8331 33.569 20.9258 33.297 20.9231H4.703C4.56514 20.9233 4.42823 20.9004 4.298 20.8551C4.17283 20.8119 4.05659 20.7461 3.955 20.6611C3.85943 20.5814 3.78145 20.4826 3.726 20.3711C3.67374 20.2654 3.64637 20.1491 3.646 20.0311V3.97015C3.646 3.85215 3.673 3.73615 3.726 3.62815C3.78172 3.51658 3.86004 3.41782 3.956 3.33815C4.054 3.25615 4.17 3.19015 4.298 3.14515C4.42823 3.09995 4.56514 3.07696 4.703 3.07715Z" fill="white"/>
<path d="M6.38 18.5624V15.4854H7.505C8.323 15.4854 8.849 15.7444 8.849 16.2804C8.849 16.5844 8.682 16.7954 8.448 16.9184C8.786 17.0504 8.984 17.3054 8.984 17.6524C8.984 18.2724 8.448 18.5624 7.614 18.5624H6.38ZM7.104 16.7644H7.641C7.969 16.7644 8.109 16.6284 8.109 16.3774C8.109 16.1094 7.854 16.0214 7.51 16.0214H7.104V16.7644ZM7.104 18.0264H7.552C7.99 18.0264 8.245 17.9334 8.245 17.6434C8.245 17.3574 8.026 17.2394 7.615 17.2394H7.105L7.104 18.0264ZM10.388 18.6154C9.675 18.6154 9.315 18.3204 9.315 17.9254C9.315 17.4894 9.73701 17.2354 10.362 17.2304C10.518 17.2324 10.672 17.2444 10.826 17.2654V17.1604C10.826 16.8914 10.643 16.7644 10.295 16.7644C10.0615 16.7614 9.82902 16.7968 9.60701 16.8694L9.47701 16.3954C9.76859 16.306 10.0721 16.2615 10.377 16.2634C11.144 16.2634 11.524 16.6064 11.524 17.1994V18.4214C11.31 18.5144 10.909 18.6154 10.388 18.6154ZM10.826 18.1184V17.6484C10.704 17.6252 10.5802 17.6132 10.456 17.6124C10.216 17.6124 10.029 17.6924 10.029 17.8984C10.029 18.0834 10.185 18.1794 10.461 18.1794C10.5855 18.1832 10.7095 18.1625 10.826 18.1184ZM12.03 18.5624V16.4564C12.4093 16.3288 12.8068 16.2636 13.207 16.2634C13.967 16.2634 14.405 16.5794 14.405 17.1634V18.5624H13.686V17.2084C13.686 16.9054 13.519 16.7644 13.202 16.7644C13.0454 16.7621 12.8898 16.7889 12.743 16.8434V18.5624H12.03ZM16.916 16.3954L16.781 16.8744C16.5923 16.8058 16.3937 16.7686 16.193 16.7644C15.771 16.7644 15.541 17.0144 15.541 17.4284C15.541 17.8814 15.781 18.1134 16.229 18.1134C16.429 18.1094 16.626 18.0704 16.807 17.9994L16.922 18.4874C16.6823 18.5768 16.4278 18.6202 16.172 18.6154C15.307 18.6154 14.807 18.1624 14.807 17.4454C14.807 16.7334 15.302 16.2634 16.13 16.2634C16.4 16.2624 16.667 16.3064 16.916 16.3954ZM18.469 18.6154C17.667 18.6154 17.167 18.1454 17.167 17.4374C17.167 16.7334 17.667 16.2634 18.469 16.2634C19.276 16.2634 19.766 16.7334 19.766 17.4364C19.766 18.1444 19.276 18.6154 18.469 18.6154ZM18.469 18.1134C18.839 18.1134 19.032 17.8544 19.032 17.4364C19.032 17.0234 18.839 16.7644 18.469 16.7644C18.105 16.7644 17.901 17.0244 17.901 17.4364C17.901 17.8544 18.105 18.1134 18.469 18.1134ZM20.182 18.5624V16.4564C20.5613 16.3288 20.9588 16.2636 21.359 16.2634C22.119 16.2634 22.557 16.5794 22.557 17.1634V18.5624H21.838V17.2084C21.838 16.9054 21.672 16.7644 21.354 16.7644C21.1974 16.7621 21.0418 16.7889 20.895 16.8434V18.5624H20.182ZM24.178 18.6154C23.558 18.6154 23.24 18.3294 23.24 17.7494V16.7994H22.886V16.3154H23.241V15.8274L23.959 15.7974V16.3154H24.537V16.7994H23.959V17.7394C23.959 17.9954 24.084 18.1134 24.319 18.1134C24.412 18.1134 24.504 18.1054 24.595 18.0874L24.631 18.5754C24.482 18.6034 24.331 18.6164 24.178 18.6154ZM25.992 18.6154C25.279 18.6154 24.919 18.3204 24.919 17.9254C24.919 17.4894 25.341 17.2354 25.966 17.2304C26.121 17.2324 26.276 17.2444 26.43 17.2654V17.1604C26.43 16.8914 26.247 16.7644 25.898 16.7644C25.6648 16.7615 25.4327 16.7969 25.211 16.8694L25.081 16.3954C25.3726 16.306 25.6761 16.2615 25.981 16.2634C26.747 16.2634 27.127 16.6064 27.127 17.1994V18.4214C26.914 18.5144 26.513 18.6154 25.992 18.6154ZM26.43 18.1184V17.6484C26.308 17.6252 26.1842 17.6132 26.06 17.6124C25.82 17.6124 25.633 17.6924 25.633 17.8984C25.633 18.0834 25.789 18.1794 26.065 18.1794C26.1895 18.1832 26.3135 18.1625 26.43 18.1184ZM29.587 16.3954L29.451 16.8744C29.2623 16.8058 29.0637 16.7686 28.863 16.7644C28.441 16.7644 28.212 17.0144 28.212 17.4284C28.212 17.8814 28.452 18.1134 28.899 18.1134C29.099 18.1094 29.296 18.0704 29.477 17.9994L29.592 18.4874C29.3523 18.5768 29.0978 18.6202 28.842 18.6154C27.977 18.6154 27.477 18.1624 27.477 17.4454C27.477 16.7334 27.972 16.2634 28.8 16.2634C29.07 16.2624 29.338 16.3064 29.587 16.3954ZM31.167 18.6154C30.547 18.6154 30.229 18.3294 30.229 17.7494V16.7994H29.875V16.3154H30.229V15.8274L30.949 15.7974V16.3154H31.526V16.7994H30.948V17.7394C30.948 17.9954 31.073 18.1134 31.308 18.1134C31.4 18.1134 31.493 18.1054 31.584 18.0874L31.62 18.5754C31.471 18.6034 31.32 18.6164 31.167 18.6154Z" fill="#1E3764"/>
<path d="M11.394 13.946C15.197 13.946 17.099 11.806 19 9.66602H6.38V13.946H11.394Z" fill="url(#paint0_linear_13_428)"/>
<path d="M26.607 5.38477C22.803 5.38477 20.902 7.52477 19 9.66477H31.62V5.38477H26.607Z" fill="url(#paint1_linear_13_428)"/>
<defs>
<linearGradient id="paint0_linear_13_428" x1="8.933" y1="12.003" x2="17.734" y2="8.13002" gradientUnits="userSpaceOnUse">
<stop stop-color="#005AB9"/>
<stop offset="1" stop-color="#1E3764"/>
</linearGradient>
<linearGradient id="paint1_linear_13_428" x1="19.764" y1="10.0368" x2="29.171" y2="6.23476" gradientUnits="userSpaceOnUse">
<stop stop-color="#FBA900"/>
<stop offset="1" stop-color="#FFD800"/>
</linearGradient>
</defs>
</svg>
