<svg width="38" height="24" viewBox="0 0 38 24" fill="none" xmlns="http://www.w3.org/2000/svg">
<path d="M36 0H2C0.89543 0 0 0.89543 0 2V22C0 23.1046 0.89543 24 2 24H36C37.1046 24 38 23.1046 38 22V2C38 0.89543 37.1046 0 36 0Z" fill="#FFA8CD"/>
<path d="M36 0.5H2C1.17157 0.5 0.5 1.17157 0.5 2V22C0.5 22.8284 1.17157 23.5 2 23.5H36C36.8284 23.5 37.5 22.8284 37.5 22V2C37.5 1.17157 36.8284 0.5 36 0.5Z" stroke="black" stroke-opacity="0.07"/>
<path d="M30.62 14.755C29.958 14.755 29.441 14.201 29.441 13.529C29.441 12.856 29.958 12.303 30.621 12.303C31.284 12.303 31.801 12.856 31.801 13.529C31.801 14.201 31.283 14.755 30.62 14.755ZM30.29 16.05C30.855 16.05 31.576 15.833 31.976 14.982L32.016 15.002C31.84 15.467 31.84 15.744 31.84 15.812V15.922H33.263V11.136H31.84V11.245C31.84 11.314 31.84 11.591 32.015 12.055L31.976 12.075C31.576 11.225 30.855 11.007 30.289 11.007C28.934 11.007 27.979 12.095 27.979 13.529C27.979 14.962 28.934 16.05 30.289 16.05H30.29ZM25.502 11.007C24.859 11.007 24.352 11.235 23.942 12.075L23.903 12.055C24.078 11.591 24.078 11.314 24.078 11.245V11.135H22.655V15.922H24.117V13.4C24.117 12.738 24.497 12.322 25.112 12.322C25.726 12.322 26.029 12.678 26.029 13.39V15.922H27.491V12.876C27.491 11.788 26.653 11.007 25.502 11.007ZM20.539 12.075L20.5 12.055C20.676 11.591 20.676 11.314 20.676 11.245V11.135H19.252V15.922H20.715L20.725 13.618C20.725 12.945 21.075 12.54 21.651 12.54C21.807 12.54 21.933 12.56 22.08 12.6V11.136C21.436 10.997 20.86 11.245 20.54 12.076L20.539 12.075ZM15.889 14.755C15.225 14.755 14.709 14.201 14.709 13.529C14.709 12.856 15.225 12.303 15.889 12.303C16.551 12.303 17.068 12.856 17.068 13.529C17.068 14.201 16.551 14.755 15.888 14.755H15.889ZM15.557 16.05C16.122 16.05 16.844 15.833 17.244 14.982L17.282 15.002C17.107 15.467 17.107 15.744 17.107 15.812V15.922H18.531V11.136H17.107V11.245C17.107 11.314 17.107 11.591 17.282 12.055L17.244 12.075C16.844 11.225 16.122 11.007 15.557 11.007C14.201 11.007 13.246 12.095 13.246 13.529C13.246 14.962 14.202 16.05 15.557 16.05ZM11.208 15.922H12.671V9H11.208V15.922ZM10.136 9H8.644C8.644 10.236 7.893 11.343 6.752 12.134L6.304 12.451V9H4.754V15.922H6.304V12.49L8.868 15.92H10.76L8.293 12.64C9.414 11.82 10.145 10.544 10.136 9.001V9Z" fill="#0B051D"/>
</svg>
