<svg width="44" height="44" viewBox="0 0 44 44" fill="none" xmlns="http://www.w3.org/2000/svg">
<g clip-path="url(#clip0_13_551)">
<path fill-rule="evenodd" clip-rule="evenodd" d="M24.1368 24.2947C23.5715 24.8601 22.9003 25.3086 22.1616 25.6146C21.4229 25.9206 20.6311 26.078 19.8316 26.078C19.032 26.078 18.2403 25.9206 17.5016 25.6146C16.7629 25.3086 16.0917 24.8601 15.5263 24.2947C14.9609 23.7294 14.5125 23.0582 14.2065 22.3195C13.9005 21.5808 13.743 20.789 13.743 19.9895C13.743 19.1899 13.9005 18.3982 14.2065 17.6595C14.5125 16.9208 14.9609 16.2496 15.5263 15.6842C16.6681 14.5424 18.2168 13.9009 19.8316 13.9009C21.4464 13.9009 22.995 14.5424 24.1368 15.6842C25.2787 16.826 25.9201 18.3747 25.9201 19.9895C25.9201 21.6043 25.2787 23.1529 24.1368 24.2947ZM24.4105 25.4737C22.9945 26.6596 21.1739 27.2504 19.3313 27.1218C17.4888 26.9932 15.7679 26.1553 14.5303 24.7842C13.2927 23.4131 12.6349 21.6156 12.6952 19.7695C12.7554 17.9235 13.529 16.1727 14.8533 14.8852C16.1776 13.5976 17.9495 12.8737 19.7965 12.8655C21.6435 12.8573 23.4217 13.5654 24.7574 14.8411C26.0931 16.1168 26.8822 17.8606 26.9589 19.7061C27.0355 21.5515 26.3937 23.3548 25.1684 24.7368L30.8526 30.4211C30.9074 30.4686 30.9517 30.527 30.9828 30.5925C31.0139 30.658 31.0311 30.7293 31.0334 30.8018C31.0357 30.8743 31.0229 30.9464 30.996 31.0138C30.9691 31.0811 30.9285 31.1421 30.8768 31.1931C30.8252 31.244 30.7636 31.2837 30.6959 31.3096C30.6282 31.3356 30.5558 31.3473 30.4834 31.344C30.4109 31.3407 30.3399 31.3225 30.2749 31.2905C30.2098 31.2584 30.1521 31.2133 30.1053 31.1579L24.4105 25.4737Z" fill="#121212"/>
</g>
<defs>
<clipPath id="clip0_13_551">
<rect width="20" height="20" fill="white" transform="translate(12 12)"/>
</clipPath>
</defs>
</svg>
