<svg width="44" height="44" viewBox="0 0 44 44" fill="none" xmlns="http://www.w3.org/2000/svg">
<path fill-rule="evenodd" clip-rule="evenodd" d="M17.325 12.98H13.849L13.002 25.74C12.9507 26.4922 13.0547 27.2469 13.3073 27.9572C13.56 28.6675 13.956 29.3183 14.4707 29.8692C14.9855 30.42 15.608 30.8591 16.2996 31.1593C16.9912 31.4595 17.7371 31.6142 18.491 31.614H26.609C27.3619 31.6141 28.1069 31.4597 28.7977 31.1602C29.4885 30.8607 30.1105 30.4226 30.625 29.8729C31.1396 29.3233 31.5359 28.6738 31.7892 27.9648C32.0426 27.2558 32.1477 26.5023 32.098 25.751L31.24 12.98H17.325ZM17.325 14.08H14.883L14.102 25.817C14.0613 26.4184 14.1446 27.0217 14.3468 27.5896C14.5489 28.1574 14.8656 28.6777 15.2771 29.1181C15.6886 29.5585 16.1862 29.9096 16.7391 30.1498C17.292 30.3899 17.8882 30.5139 18.491 30.514H26.609C27.2127 30.5154 27.8102 30.3925 28.3644 30.1531C28.9185 29.9136 29.4175 29.5627 29.8302 29.1221C30.2429 28.6815 30.5605 28.1607 30.7633 27.5921C30.9661 27.0235 31.0498 26.4193 31.009 25.817L30.217 14.08H27.775V14.773C27.775 15.4592 27.6399 16.1386 27.3773 16.7725C27.1147 17.4064 26.7298 17.9824 26.2446 18.4676C25.7595 18.9528 25.1835 19.3377 24.5495 19.6003C23.9156 19.8628 23.2362 19.998 22.55 19.998C21.8638 19.998 21.1844 19.8628 20.5505 19.6003C19.9166 19.3377 19.3406 18.9528 18.8554 18.4676C18.3702 17.9824 17.9853 17.4064 17.7227 16.7725C17.4602 16.1386 17.325 15.4592 17.325 14.773V14.08ZM26.675 14.08H18.425V14.773C18.425 15.867 18.8596 16.9162 19.6332 17.6898C20.4068 18.4634 21.456 18.898 22.55 18.898C23.644 18.898 24.6932 18.4634 25.4668 17.6898C26.2404 16.9162 26.675 15.867 26.675 14.773V14.08Z" fill="#121212"/>
</svg>
