<svg width="44" height="44" viewBox="0 0 44 44" fill="none" xmlns="http://www.w3.org/2000/svg">
<path fill-rule="evenodd" clip-rule="evenodd" d="M18.8421 16.7368C18.8421 15.8993 19.1748 15.0961 19.767 14.5039C20.3592 13.9117 21.1625 13.5789 22 13.5789C22.8375 13.5789 23.6407 13.9117 24.233 14.5039C24.8252 15.0961 25.1579 15.8993 25.1579 16.7368C25.1579 17.5744 24.8252 18.3776 24.233 18.9698C23.6407 19.562 22.8375 19.8947 22 19.8947C21.1625 19.8947 20.3592 19.562 19.767 18.9698C19.1748 18.3776 18.8421 17.5744 18.8421 16.7368ZM22 12.5263C20.8833 12.5263 19.8123 12.9699 19.0227 13.7595C18.2331 14.5492 17.7895 15.6201 17.7895 16.7368C17.7895 17.8535 18.2331 18.9245 19.0227 19.7141C19.8123 20.5038 20.8833 20.9474 22 20.9474C23.1167 20.9474 24.1877 20.5038 24.9773 19.7141C25.7669 18.9245 26.2105 17.8535 26.2105 16.7368C26.2105 15.6201 25.7669 14.5492 24.9773 13.7595C24.1877 12.9699 23.1167 12.5263 22 12.5263ZM27.8737 25.3158C29.0526 26.1789 29.8 27.6737 29.8842 30.4211H14.1158C14.2 27.6842 14.9474 26.1789 16.1158 25.3158C17.4316 24.3684 19.3684 24.1053 22 24.1053C24.6316 24.1053 26.5789 24.3789 27.8737 25.3158ZM22 23.0526C19.3684 23.0526 17.1053 23.3053 15.5053 24.4737C13.8632 25.6632 13.0526 27.7158 13.0526 30.9474V31.4737H30.9474V30.9474C30.9474 27.7158 30.1368 25.6632 28.4947 24.4737C26.8947 23.3158 24.6316 23.0526 22 23.0526Z" fill="#121212"/>
</svg>
