<svg width="40" height="44" viewBox="0 0 40 44" fill="none" xmlns="http://www.w3.org/2000/svg">
<path fill-rule="evenodd" clip-rule="evenodd" d="M22.907 16.1428C22.151 16.1095 21.9206 16.1014 20 16.1014C18.0704 16.1014 17.849 16.1104 17.0858 16.1509C16.3874 16.1752 16.0103 16.2985 15.7475 16.3966C15.4371 16.5102 15.1565 16.6927 14.9267 16.9303C14.6863 17.1629 14.5012 17.4465 14.3849 17.7601C14.2859 18.0139 14.1707 18.3919 14.1383 19.0975C14.0969 19.8535 14.0969 20.083 14.0969 22.0045C14.0969 23.9251 14.1059 24.1555 14.1383 24.9106C14.1419 25.3696 14.2256 25.825 14.3849 26.2561C14.5154 26.5846 14.672 26.8312 14.9267 27.0778C15.1805 27.3316 15.4109 27.4882 15.7547 27.6196C16.1813 27.778 16.6313 27.8608 17.0858 27.8653C17.849 27.9067 18.0785 27.9067 20 27.9067C21.9206 27.9067 22.151 27.8977 22.907 27.8653C23.6126 27.8329 23.9897 27.7177 24.2444 27.6196C24.581 27.4882 24.8276 27.3235 25.0733 27.0778C25.328 26.8231 25.4756 26.5846 25.6151 26.248C25.7744 25.8196 25.8581 25.3669 25.8617 24.9106C25.895 24.1546 25.9031 23.9251 25.9031 22.0036C25.9031 20.083 25.8941 19.8526 25.8536 19.0975C25.8293 18.3919 25.706 18.0139 25.607 17.752C25.4935 17.4413 25.3111 17.1603 25.0733 16.9303C24.839 16.6928 24.5567 16.5081 24.2453 16.3885C23.9897 16.2895 23.6135 16.1752 22.907 16.1428ZM17.0273 14.845C17.7986 14.8126 18.0452 14.8045 19.9991 14.8045C20.9891 14.7919 21.9809 14.8054 22.9709 14.845C23.5685 14.8576 24.1598 14.971 24.7196 15.1816C25.1984 15.3637 25.6324 15.6467 25.9922 16.0114C26.3612 16.3687 26.6474 16.8034 26.8292 17.284C27.0362 17.8438 27.1478 18.4351 27.1577 19.0318C27.2 19.804 27.2 20.0416 27.2 22.0045C27.2 23.9575 27.191 24.2041 27.1586 24.9673C27.1262 25.7395 27.0029 26.2651 26.822 26.716C26.642 27.193 26.3954 27.5944 25.994 27.9967C25.6353 28.3631 25.2006 28.6463 24.7205 28.8265C24.2615 28.9984 23.735 29.1298 22.9718 29.1631C22.2005 29.1955 21.962 29.2036 20 29.2036C18.0461 29.2036 17.7995 29.1955 17.0282 29.1541C16.2641 29.1298 15.7394 29.0065 15.2795 28.8265C14.803 28.64 14.3698 28.3575 14.0069 27.9967C13.6421 27.6325 13.357 27.1963 13.1699 26.716C13.0052 26.257 12.8738 25.7395 12.8414 24.9673C12.8081 24.205 12.8 23.9503 12.8 22.0036C12.8 20.0587 12.8 19.8121 12.8495 19.0318C12.8738 18.2686 12.9971 17.743 13.178 17.284C13.3701 16.8108 13.6512 16.3788 14.006 16.0114C14.369 15.6484 14.8023 15.3636 15.2795 15.1744C15.7385 15.0097 16.2632 14.8774 17.0273 14.845ZM17.4116 19.1704C17.7533 18.8212 18.1608 18.5432 18.6106 18.3525C19.0605 18.1619 19.5437 18.0623 20.0322 18.0597C20.5208 18.057 21.005 18.1512 21.4569 18.337C21.9088 18.5227 22.3193 18.7962 22.6648 19.1417C23.0103 19.4872 23.2838 19.8977 23.4695 20.3496C23.6553 20.8015 23.7495 21.2857 23.7468 21.7743C23.7442 22.2628 23.6446 22.746 23.454 23.1959C23.2633 23.6457 22.9853 24.0532 22.6361 24.3949C21.9407 25.0752 21.005 25.4539 20.0322 25.4485C19.0594 25.4432 18.1279 25.0544 17.44 24.3665C16.7521 23.6786 16.3633 22.7471 16.358 21.7743C16.3526 20.8015 16.7313 19.8658 17.4116 19.1704ZM19.1054 24.0043C19.6938 24.248 20.3549 24.248 20.9433 24.0043C21.5316 23.7606 21.9991 23.2931 22.2428 22.7047C22.4865 22.1163 22.4865 21.4552 22.2428 20.8668C21.9991 20.2785 21.5316 19.811 20.9432 19.5673C20.3548 19.3236 19.6937 19.3236 19.1053 19.5673C18.517 19.811 18.0495 20.2785 17.8058 20.8669C17.5621 21.4553 17.5621 22.1164 17.8058 22.7048C18.0495 23.2931 18.517 23.7606 19.1054 24.0043ZM24.4352 18.6565C24.3551 18.7366 24.2601 18.8001 24.1554 18.8434C24.0508 18.8868 23.9387 18.9091 23.8255 18.9091C23.7122 18.9091 23.6001 18.8868 23.4955 18.8434C23.3908 18.8001 23.2958 18.7366 23.2157 18.6565C23.1356 18.5764 23.0721 18.4814 23.0288 18.3767C22.9854 18.2721 22.9631 18.16 22.9631 18.0468C22.9631 17.9335 22.9854 17.8214 23.0288 17.7168C23.0721 17.6121 23.1356 17.5171 23.2157 17.437C23.3774 17.2753 23.5968 17.1844 23.8255 17.1844C24.0542 17.1844 24.2735 17.2753 24.4352 17.437C24.5969 17.5987 24.6878 17.818 24.6878 18.0468C24.6878 18.2755 24.5969 18.4948 24.4352 18.6565Z" fill="#121212"/>
</svg>
