<svg width="29" height="44" viewBox="0 0 29 44" fill="none" xmlns="http://www.w3.org/2000/svg">
<path d="M27.344 18.283C27.65 19.4611 27.65 21.955 27.65 21.955C27.65 21.955 27.65 24.4489 27.344 25.627C27.2588 25.9588 27.0861 26.2617 26.8439 26.5039C26.6017 26.7461 26.2988 26.9188 25.967 27.004C24.7889 27.31 20 27.31 20 27.31C20 27.31 15.2111 27.31 14.033 27.004C13.7012 26.9188 13.3984 26.7461 13.1561 26.5039C12.9139 26.2617 12.7412 25.9588 12.656 25.627C12.35 24.4489 12.35 21.955 12.35 21.955C12.35 21.955 12.35 19.4611 12.656 18.283C12.7452 17.9532 12.9193 17.6525 13.1609 17.4109C13.4025 17.1693 13.7032 16.9952 14.033 16.906C15.2111 16.6 20 16.6 20 16.6C20 16.6 24.7889 16.6 25.967 16.906C26.2968 16.9952 26.5975 17.1693 26.8391 17.4109C27.0807 17.6525 27.2548 17.9532 27.344 18.283ZM18.47 24.25L22.448 21.955L18.47 19.66V24.25Z" fill="#121212"/>
</svg>
