<svg width="40" height="44" viewBox="0 0 40 44" fill="none" xmlns="http://www.w3.org/2000/svg">
<path d="M20.4599 14.5345H22.9259C22.9259 14.5345 22.7846 17.6935 26.3414 17.9257V20.3656C26.3414 20.3656 24.4388 20.4817 22.925 19.3234L22.9502 24.3688C22.9504 25.2722 22.6826 26.1553 22.1807 26.9064C21.6788 27.6575 20.9654 28.2428 20.1307 28.5883C19.296 28.9338 18.3776 29.0239 17.4917 28.8472C16.6058 28.6706 15.7922 28.2351 15.1538 27.5959C14.5155 26.9567 14.0811 26.1425 13.9057 25.2563C13.7303 24.3702 13.8217 23.4519 14.1683 22.6177C14.515 21.7835 15.1013 21.0709 15.8531 20.57C16.6049 20.0692 17.4884 19.8026 18.3917 19.804H19.0289V22.3105C18.6132 22.1817 18.1675 22.1874 17.7552 22.3266C17.3429 22.4658 16.9851 22.7315 16.7325 23.0859C16.48 23.4403 16.3457 23.8654 16.3488 24.3005C16.3518 24.7357 16.492 25.1588 16.7495 25.5096C17.0069 25.8605 17.3685 26.1212 17.7827 26.2546C18.1969 26.3881 18.6426 26.3875 19.0564 26.2529C19.4703 26.1184 19.8311 25.8567 20.0876 25.5052C20.3441 25.1536 20.4832 24.7302 20.4851 24.295L20.4599 14.5345Z" fill="#121212"/>
</svg>
