<svg width="40" height="44" viewBox="0 0 40 44" fill="none" xmlns="http://www.w3.org/2000/svg">
<path d="M20 14.809C21.9116 14.818 23.744 15.5785 25.0994 16.9267C26.2142 18.0552 26.9297 19.517 27.1372 21.0897C27.3447 22.6623 27.0327 24.2597 26.2487 25.6387C25.6187 26.7377 24.7083 27.6497 23.6105 28.2817C22.5126 28.9137 21.2667 29.243 20 29.236C19.3076 29.2409 18.618 29.1479 17.9516 28.9597C18.3143 28.372 18.5564 27.8437 18.686 27.4036L19.1963 25.4236C19.3169 25.6666 19.55 25.8736 19.8875 26.0554C20.2331 26.2282 20.5787 26.3227 20.9585 26.3227C21.7109 26.3227 22.385 26.1067 22.9817 25.6747C23.5949 25.2203 24.073 24.6078 24.365 23.9026C24.698 23.1016 24.8636 22.2394 24.8483 21.3709C24.8483 20.2468 24.4163 19.2874 23.5613 18.4666C23.1227 18.0535 22.6066 17.7314 22.0427 17.5192C21.4788 17.3069 20.8784 17.2086 20.2763 17.23C19.4726 17.23 18.7202 17.3686 18.0461 17.6449C17.2097 17.9629 16.4865 18.5219 15.968 19.2512C15.4496 19.9805 15.1592 20.8473 15.1337 21.7417C15.1337 22.3897 15.2543 22.9612 15.5054 23.4535C15.7475 23.9377 16.1102 24.2833 16.6034 24.4903C16.6898 24.5254 16.7672 24.5254 16.8284 24.4903C16.8878 24.4651 16.931 24.4039 16.9571 24.3175L17.1128 23.7298C17.156 23.6002 17.1308 23.4706 17.0183 23.341C16.6811 22.9511 16.5048 22.4476 16.5251 21.9325C16.5175 21.4652 16.6056 21.0014 16.7841 20.5695C16.9626 20.1376 17.2276 19.7468 17.5629 19.4213C17.8982 19.0957 18.2965 18.8423 18.7335 18.6765C19.1704 18.5108 19.6367 18.4363 20.1035 18.4576C21.0458 18.4576 21.7802 18.7168 22.2995 19.2271C22.826 19.7455 23.0942 20.4106 23.0942 21.2323C23.0942 21.9235 22.9988 22.5634 22.8089 23.1421C22.6562 23.6662 22.3807 24.1463 22.0052 24.5425C21.6596 24.8881 21.2528 25.0609 20.7947 25.0609C20.423 25.0609 20.1206 24.9313 19.8785 24.655C19.6454 24.3787 19.568 24.0502 19.6535 23.6785C19.7858 23.2159 19.9217 22.7551 20.0603 22.2952L20.216 21.6643C20.2673 21.4393 20.2934 21.2584 20.2934 21.1027C20.2934 20.7913 20.207 20.5321 20.0513 20.3332C19.8785 20.1352 19.6454 20.0308 19.334 20.0308C18.9452 20.0308 18.6167 20.2036 18.3575 20.5663C18.0983 20.9209 17.9597 21.37 17.9597 21.9154C17.9642 22.252 18.0164 22.5868 18.1154 22.909L18.1676 23.0386C17.6492 25.2688 17.3459 26.5828 17.2343 26.9626C17.1299 27.4378 17.0957 28.0003 17.1218 28.6393C15.84 28.072 14.7498 27.1457 13.9829 25.9724C13.216 24.799 12.8052 23.4287 12.8 22.027C12.8 20.0398 13.5002 18.328 14.9087 16.9276C15.5672 16.2443 16.3586 15.703 17.2342 15.3373C18.1099 14.9715 19.0511 14.789 20 14.8009V14.809Z" fill="#121212"/>
</svg>
